# xmcd
#
# Track frame offsets:
#	150
#	14548
#	25159
#	37251
#	52470
#	61633
#	74028
#	85748
#	97181
#	109527
#	124195
#
# Disc length: 1894 seconds
#
# Revision: 0
# Processed by: cddbd v1.5.1PL2 Copyright (c) Steve Scherf et al.
# Submitted via: dBpowerAMP V4.0
#
DISCID=9e07640b
DTITLE=Randy Travis - An Old Time Christmas
DYEAR=1900
DGENRE=Country
TTITLE0=Old Time Christmas
TTITLE1=Winter Wonderland
TTITLE2=Meet Me Under the Mistletoe
TTITLE3=White Christmas Makes Me Blue
TTITLE4=Santa Claus is Coming to Town
TTITLE5=God Rest Ye Merry Gentlemen
TTITLE6=Pretty Paper
TTITLE7=Oh, What a Silent Night
TTITLE8=How do I Wrap My Heart Up for Christmas
TTITLE9=The Christmas Song
TTITLE10=Jingle Bell Rock
EXTD=
EXTT0=
EXTT1=
EXTT2=
EXTT3=
EXTT4=
EXTT5=
EXTT6=
EXTT7=
EXTT8=
EXTT9=
EXTT10=
PLAYORDER=
